<?xml version="1.0" standalone="no"?><!DOCTYPE svg PUBLIC "-//W3C//DTD SVG 1.1//EN" "http://www.w3.org/Graphics/SVG/1.1/DTD/svg11.dtd"><svg t="1627626147848" class="icon" viewBox="0 0 1024 1024" version="1.1" xmlns="http://www.w3.org/2000/svg" p-id="4072" xmlns:xlink="http://www.w3.org/1999/xlink" width="200" height="200"><defs><style type="text/css">@font-face { font-family: feedback-iconfont; src: url("//at.alicdn.com/t/font_1031158_1uhr8ri0pk5.eot?#iefix") format("embedded-opentype"), url("//at.alicdn.com/t/font_1031158_1uhr8ri0pk5.woff2") format("woff2"), url("//at.alicdn.com/t/font_1031158_1uhr8ri0pk5.woff") format("woff"), url("//at.alicdn.com/t/font_1031158_1uhr8ri0pk5.ttf") format("truetype"), url("//at.alicdn.com/t/font_1031158_1uhr8ri0pk5.svg#iconfont") format("svg"); }
</style></defs><path d="M1024 192v44.8c0 6.4 0 12.8-6.4 12.8-6.4 6.4-12.8 6.4-19.2 6.4h-70.4v633.6c0 38.4-12.8 70.4-32 96-25.6 25.6-51.2 38.4-83.2 38.4H211.2c-32 0-57.6-12.8-83.2-38.4-25.6-25.6-32-57.6-32-96V256H25.6c-6.4 0-12.8 0-19.2-6.4-6.4-6.4-6.4-6.4-6.4-12.8V192c0-6.4 0-12.8 6.4-12.8 6.4-6.4 12.8-6.4 19.2-6.4h224L300.8 64c6.4-19.2 19.2-32 38.4-44.8 19.2-12.8 38.4-19.2 57.6-19.2h230.4c19.2 0 38.4 6.4 57.6 19.2 19.2 12.8 32 25.6 38.4 44.8l51.2 108.8h224c6.4 0 12.8 0 19.2 6.4 6.4 0 6.4 6.4 6.4 12.8z m-185.6 697.6V256H185.6v633.6c0 12.8 0 19.2 6.4 25.6 6.4 6.4 6.4 12.8 12.8 19.2l6.4 6.4h608s6.4 0 6.4-6.4c6.4-6.4 6.4-12.8 12.8-19.2v-25.6zM371.2 403.2v384c0 6.4 0 12.8-6.4 12.8-6.4 6.4-12.8 6.4-19.2 6.4h-44.8c-6.4 0-12.8 0-19.2-6.4s-6.4-6.4-6.4-12.8v-384c0-6.4 0-12.8 6.4-12.8 6.4-6.4 12.8-6.4 19.2-6.4h44.8c6.4 0 12.8 0 19.2 6.4 6.4 6.4 6.4 6.4 6.4 12.8z m-19.2-230.4h326.4L640 89.6c-6.4 0-6.4-6.4-12.8-6.4H396.8c-6.4 0-6.4 6.4-12.8 6.4l-32 83.2z m204.8 230.4v384c0 6.4 0 12.8-6.4 12.8-6.4 6.4-12.8 6.4-19.2 6.4h-44.8c-6.4 0-12.8 0-19.2-6.4-6.4-6.4-6.4-6.4-6.4-12.8v-384c0-6.4 0-12.8 6.4-12.8 6.4-6.4 12.8-6.4 19.2-6.4h44.8c6.4 0 12.8 0 19.2 6.4 6.4 6.4 6.4 6.4 6.4 12.8z m185.6 0v384c0 6.4 0 12.8-6.4 12.8-6.4 6.4-12.8 6.4-19.2 6.4h-44.8c-6.4 0-12.8 0-19.2-6.4-6.4-6.4-6.4-6.4-6.4-12.8v-384c0-6.4 0-12.8 6.4-12.8 12.8-6.4 12.8-6.4 19.2-6.4h44.8c6.4 0 12.8 0 19.2 6.4 6.4 6.4 6.4 6.4 6.4 12.8z" fill="#E64F4F" p-id="4073"></path></svg>