<?xml version="1.0" standalone="no"?><!DOCTYPE svg PUBLIC "-//W3C//DTD SVG 1.1//EN" "http://www.w3.org/Graphics/SVG/1.1/DTD/svg11.dtd"><svg t="1627626193987" class="icon" viewBox="0 0 1024 1024" version="1.1" xmlns="http://www.w3.org/2000/svg" p-id="8980" xmlns:xlink="http://www.w3.org/1999/xlink" width="200" height="200"><defs><style type="text/css">@font-face { font-family: feedback-iconfont; src: url("//at.alicdn.com/t/font_1031158_1uhr8ri0pk5.eot?#iefix") format("embedded-opentype"), url("//at.alicdn.com/t/font_1031158_1uhr8ri0pk5.woff2") format("woff2"), url("//at.alicdn.com/t/font_1031158_1uhr8ri0pk5.woff") format("woff"), url("//at.alicdn.com/t/font_1031158_1uhr8ri0pk5.ttf") format("truetype"), url("//at.alicdn.com/t/font_1031158_1uhr8ri0pk5.svg#iconfont") format("svg"); }
</style></defs><path d="M850.35 695.455a139.51 139.51 0 1 0-139.51 139.55 139.53 139.53 0 0 0 139.51-139.55z" fill="#F4CA1C" p-id="8981"></path><path d="M670.208 880.128h-449.89a86.784 86.784 0 0 1-86.686-86.666V230.538a86.779 86.779 0 0 1 86.687-86.666H785.72a86.784 86.784 0 0 1 86.687 86.676v288.62a36.096 36.096 0 0 0 72.192 0v-288.63A159.053 159.053 0 0 0 785.72 71.68H220.32A159.053 159.053 0 0 0 61.44 230.538v562.924A159.053 159.053 0 0 0 220.319 952.32h449.889a36.09 36.09 0 1 0 0-72.192z m60.216-550.994a36.09 36.09 0 0 0-36.096-36.09H232.294a36.09 36.09 0 1 0 0 72.191h462.034a36.09 36.09 0 0 0 36.096-36.1zM462.136 481.925a36.09 36.09 0 0 0-36.096-36.09H232.294a36.09 36.09 0 1 0 0 72.191h193.72a36.09 36.09 0 0 0 36.097-36.096z m489.846 396.667L837.92 764.549a198.374 198.374 0 1 0-51.559 50.524l114.576 114.555a36.09 36.09 0 1 0 51.046-51.036zM549.34 650.358a126.341 126.341 0 1 1 126.341 126.346 126.464 126.464 0 0 1-126.34-126.351z m-317.05-51.712a36.09 36.09 0 1 0 0 72.192h95.057a36.09 36.09 0 1 0 0-72.192h-95.053z" fill="#595BB3" p-id="8982"></path></svg>