<?xml version="1.0" standalone="no"?><!DOCTYPE svg PUBLIC "-//W3C//DTD SVG 1.1//EN" "http://www.w3.org/Graphics/SVG/1.1/DTD/svg11.dtd"><svg t="1627626595610" class="icon" viewBox="0 0 1123 1024" version="1.1" xmlns="http://www.w3.org/2000/svg" p-id="17410" xmlns:xlink="http://www.w3.org/1999/xlink" width="219.3359375" height="200"><defs><style type="text/css">@font-face { font-family: feedback-iconfont; src: url("//at.alicdn.com/t/font_1031158_1uhr8ri0pk5.eot?#iefix") format("embedded-opentype"), url("//at.alicdn.com/t/font_1031158_1uhr8ri0pk5.woff2") format("woff2"), url("//at.alicdn.com/t/font_1031158_1uhr8ri0pk5.woff") format("woff"), url("//at.alicdn.com/t/font_1031158_1uhr8ri0pk5.ttf") format("truetype"), url("//at.alicdn.com/t/font_1031158_1uhr8ri0pk5.svg#iconfont") format("svg"); }
</style></defs><path d="M1008.068696 339.512172a391.890917 391.890917 0 0 0-277.666474-113.993219H173.681932l141.740048-140.517866a49.481844 49.481844 0 0 0 0-70.424093 50.538866 50.538866 0 0 0-71.018668 0L14.699213 242.233114a49.481844 49.481844 0 0 0 0 70.424093l229.671067 227.590055c9.810486 9.744422 22.65991 14.600117 35.509334 14.600117 12.882456 0 25.73188-4.855695 35.542366-14.600117a49.481844 49.481844 0 0 0 0-70.391061L169.354748 325.044183h561.047474a291.672016 291.672016 0 0 1 206.647807 84.826018 286.419938 286.419938 0 0 1 85.585752 204.798018v20.083419a286.386906 286.386906 0 0 1-85.585752 204.798018 291.672016 291.672016 0 0 1-206.647807 84.826018H188.050825c-27.746828 0-50.208546 22.296558-50.208546 49.812163 0 27.482573 22.461718 49.779131 50.208546 49.779131h542.351397c104.876404 0 203.476741-40.497156 277.666474-113.993219A384.888146 384.888146 0 0 0 1123.085906 634.78467v-20.083419a384.822082 384.822082 0 0 0-115.01721-275.189079z" fill="#ffffff" p-id="17411"></path></svg>