<?xml version="1.0" standalone="no"?><!DOCTYPE svg PUBLIC "-//W3C//DTD SVG 1.1//EN" "http://www.w3.org/Graphics/SVG/1.1/DTD/svg11.dtd"><svg t="1627624901899" class="icon" viewBox="0 0 1024 1024" version="1.1" xmlns="http://www.w3.org/2000/svg" p-id="2370" xmlns:xlink="http://www.w3.org/1999/xlink" width="200" height="200"><defs><style type="text/css">@font-face { font-family: feedback-iconfont; src: url("//at.alicdn.com/t/font_1031158_1uhr8ri0pk5.eot?#iefix") format("embedded-opentype"), url("//at.alicdn.com/t/font_1031158_1uhr8ri0pk5.woff2") format("woff2"), url("//at.alicdn.com/t/font_1031158_1uhr8ri0pk5.woff") format("woff"), url("//at.alicdn.com/t/font_1031158_1uhr8ri0pk5.ttf") format("truetype"), url("//at.alicdn.com/t/font_1031158_1uhr8ri0pk5.svg#iconfont") format("svg"); }
</style></defs><path d="M767.789762 988.960307a70.920339 70.920339 0 0 1-32.516836-8.970162l-224.254037-116.051464-224.254038 116.051464a66.154941 66.154941 0 0 1-72.04161-5.326033 75.125103 75.125103 0 0 1-28.031755-71.480975l46.252396-250.32357-174.91815-171.834656a80.451136 80.451136 0 0 1-19.061593-74.844785 69.238434 69.238434 0 0 1 56.06351-50.176841l245.838488-46.532713 109.604161-232.383247a70.079387 70.079387 0 0 1 62.230496-41.206679 67.556529 67.556529 0 0 1 61.66986 41.206679l110.164796 232.383247 245.558172 44.57049a67.276211 67.276211 0 0 1 56.063509 50.176841 74.844785 74.844785 0 0 1-17.09937 75.125103l-176.880373 173.516561 44.57049 250.32357a73.723515 73.723515 0 0 1-28.031754 71.480975 58.30605 58.30605 0 0 1-39.524774 14.296195z" fill="#F09137" p-id="2371"></path><path d="M770.31262 1024h-3.644128a107.922256 107.922256 0 0 1-48.214618-13.174925l-206.594033-107.641938-208.836572 107.922256a101.194635 101.194635 0 0 1-109.604161-8.409527 112.127019 112.127019 0 0 1-40.646045-105.399397l42.888585-233.2242L32.236518 505.412538a115.771147 115.771147 0 0 1-28.031755-108.763209 104.558445 104.558445 0 0 1 84.095264-76.246373l226.776896-42.888584 102.315905-216.405147a105.960033 105.960033 0 0 1 93.065425-61.109225 103.437175 103.437175 0 0 1 94.747331 62.230495l101.75527 215.283877 227.898166 41.206679a101.75527 101.75527 0 0 1 84.095264 75.966055 108.482891 108.482891 0 0 1-25.789214 107.922256l-165.107036 161.462907 41.486997 232.102929a108.482891 108.482891 0 0 1-40.646044 105.399398 92.504791 92.504791 0 0 1-57.745415 21.584451zM768.070079 953.920613a24.107309 24.107309 0 0 0 16.258418-5.886668 39.805092 39.805092 0 0 0 15.697783-38.683822l-47.934301-268.54421 190.055297-186.691487a38.403504 38.403504 0 0 0 8.409527-38.964139 32.797153 32.797153 0 0 0-28.031755-26.349849l-264.339447-47.934301-117.453052-248.921982a33.638106 33.638106 0 0 0-30.554613-21.023816 35.039693 35.039693 0 0 0-29.993978 20.463181l-117.733369 249.2023-263.218177 49.896523a34.479058 34.479058 0 0 0-28.031755 24.948262 44.57049 44.57049 0 0 0 10.932384 41.767315l188.934027 183.607993-49.616206 268.824528a40.085409 40.085409 0 0 0 14.85683 37.562551 31.115248 31.115248 0 0 0 33.357788 2.24254l241.914044-125.021626 239.671503 124.460991a36.441281 36.441281 0 0 0 16.819052 5.045716z" fill="#F09137" p-id="2372" data-spm-anchor-id="a313x.7781069.0.i3"></path></svg>